<svg width="41" height="40" viewBox="0 0 41 40" fill="none" xmlns="http://www.w3.org/2000/svg">
<path fill-rule="evenodd" clip-rule="evenodd" d="M5.15024 8.12097C5.67634 7.24805 8.57505 4.07302 10.6436 4.16887C11.2619 4.22022 11.8085 4.59506 12.2527 5.02981C13.2724 6.02768 16.1916 9.80177 16.3573 10.596C16.7604 12.5438 14.4442 13.6666 15.1531 15.6298C16.9603 20.0611 20.0742 23.1814 24.4983 24.9906C26.4558 25.7009 27.5763 23.38 29.5202 23.7856C30.3111 23.9516 34.0792 26.8768 35.075 27.8986C35.5072 28.3419 35.883 28.8913 35.9342 29.5109C36.0111 31.6932 32.6461 34.6389 31.9901 35.0155C30.4426 36.1246 28.4236 36.1058 25.9621 34.959C19.0937 32.0955 8.11727 21.3038 5.2066 14.1612C4.0929 11.7085 4.01604 9.67169 5.15024 8.12097Z" stroke="#1D3B70" stroke-width="2" stroke-linecap="round" stroke-linejoin="round"/>
</svg>
