<svg width="60" height="60" viewBox="0 0 60 60" fill="none" xmlns="http://www.w3.org/2000/svg">
<path d="M48.75 60H11.25C5.03625 60 0 54.9637 0 48.75V11.25C0 5.03625 5.03625 0 11.25 0H48.75C54.9637 0 60 5.03625 60 11.25V48.75C60 54.9637 54.9637 60 48.75 60Z" fill="white"/>
<path d="M35.1132 19.9819H37.8507V15.2119C37.38 15.1462 35.7544 15 33.8625 15C29.9138 15 27.21 17.4844 27.21 22.0481V26.25H22.8525V31.5825H27.21V45L32.5519 45.0019V31.5844H36.7332L37.3969 26.2519H32.55V22.5787C32.5519 21.0375 32.9663 19.9819 35.1132 19.9819Z" fill="#1976D2"/>
</svg>
