<svg width="60" height="60" viewBox="0 0 60 60" fill="none" xmlns="http://www.w3.org/2000/svg">
<path d="M48.75 60H11.25C5.03625 60 0 54.9637 0 48.75V11.25C0 5.03625 5.03625 0 11.25 0H48.75C54.9637 0 60 5.03625 60 11.25V48.75C60 54.9637 54.9637 60 48.75 60Z" fill="white"/>
<path d="M30.0055 22.2974C25.7511 22.2974 22.3086 25.7455 22.3086 29.9942C22.3086 34.2467 25.7567 37.6911 30.0055 37.6911C34.2598 37.6911 37.7023 34.243 37.7023 29.9942C37.7023 25.7399 34.2542 22.2974 30.0055 22.2974ZM30.0055 34.9911C27.2455 34.9911 25.0086 32.7542 25.0086 29.9942C25.0086 27.2342 27.2455 24.9974 30.0055 24.9974C32.7655 24.9974 35.0023 27.2324 35.0023 29.9942C35.0023 32.7542 32.7655 34.9911 30.0055 34.9911Z" fill="url(#paint0_linear)"/>
<path d="M36.1855 15.0937C33.4255 14.9643 26.5892 14.97 23.8255 15.0937C21.3974 15.2081 19.2561 15.795 17.5311 17.52C14.6455 20.4056 15.0149 24.2925 15.0149 29.9943C15.0149 35.8293 14.6905 39.6281 17.5311 42.4687C20.4261 45.3637 24.3711 44.985 30.0055 44.985C36.9111 44.985 44.4674 45.6468 44.9061 36.1743C45.0355 33.4125 45.0299 26.5781 44.9061 23.8162C44.6586 18.5493 41.8311 15.3562 36.1855 15.0937ZM40.5524 40.56C38.6605 42.4518 36.0374 42.2831 29.9661 42.2831C23.7167 42.2831 21.2099 42.375 19.3799 40.5412C17.2724 38.445 17.6549 35.0775 17.6549 29.9756C17.6549 17.5068 18.3692 17.6662 29.9474 17.6662L30.0036 17.7037C42.4199 17.7037 42.2924 18.5081 42.2924 29.9943C42.2942 36.1706 42.4124 38.6925 40.5524 40.56Z" fill="url(#paint1_linear)"/>
<path d="M38.0081 23.7918C39.0012 23.7918 39.8062 22.9868 39.8062 21.9937C39.8062 21.0006 39.0012 20.1956 38.0081 20.1956C37.015 20.1956 36.21 21.0006 36.21 21.9937C36.21 22.9868 37.015 23.7918 38.0081 23.7918Z" fill="url(#paint2_linear)"/>
<defs>
<linearGradient id="paint0_linear" x1="24.5631" y1="35.4366" x2="35.4478" y2="24.5519" gradientUnits="userSpaceOnUse">
<stop stop-color="#FFC107"/>
<stop offset="0.507" stop-color="#F44336"/>
<stop offset="0.99" stop-color="#9C27B0"/>
</linearGradient>
<linearGradient id="paint1_linear" x1="17.7459" y1="42.255" x2="42.2555" y2="17.7458" gradientUnits="userSpaceOnUse">
<stop stop-color="#FFC107"/>
<stop offset="0.507" stop-color="#F44336"/>
<stop offset="0.99" stop-color="#9C27B0"/>
</linearGradient>
<linearGradient id="paint2_linear" x1="36.7367" y1="23.2654" x2="39.2794" y2="20.7223" gradientUnits="userSpaceOnUse">
<stop stop-color="#FFC107"/>
<stop offset="0.507" stop-color="#F44336"/>
<stop offset="0.99" stop-color="#9C27B0"/>
</linearGradient>
</defs>
</svg>
