<?xml version="1.0" encoding="UTF-8"?>
<!DOCTYPE svg PUBLIC "-//W3C//DTD SVG 1.1//EN" "http://www.w3.org/Graphics/SVG/1.1/DTD/svg11.dtd">
<!-- Creator: CorelDRAW 2018 (64-Bit Evaluation Version) -->
<svg xmlns="http://www.w3.org/2000/svg" xml:space="preserve" version="1.1" style="shape-rendering:geometricPrecision; text-rendering:geometricPrecision; image-rendering:optimizeQuality; fill-rule:evenodd; clip-rule:evenodd" xmlns:xlink="http://www.w3.org/1999/xlink">
	<defs>
		<style type="text/css">
			<![CDATA[
			.fil0 {fill:#190082}
			.fil3 {fill:#6EDE5D}
			.fil4 {fill:#FE8E5E}
			.fil2 {fill:#FEEE7A}
			.fil1 {fill:white}
			]]>
		</style>
	</defs>
	<g id="Layer_x0020_1">
		<metadata id="CorelCorpID_0Corel-Layer" />
		<g id="_2371313052832">
			<path class="fil0" d="M31.46 63.85c0.06,-1.15 -0.84,-1 -1.85,-1l-21.73 0 -0 -6.33c4.47,0.08 9,0.01 13.47,0.01 2.28,0 11.9,0.29 13.17,-0.22l0.14 -0.54 -0.15 -0.7c-1.02,-0.45 -23.5,-0.22 -26.55,-0.21 -2.37,0.01 -3.71,-0.63 -4.66,-2.07 -1.09,-1.66 -0.77,-3.9 0.32,-5.15 1.4,-1.6 2.46,-1.65 5.05,-1.64l46.88 0c3.6,0 6.68,-0.64 8.58,1.54 0.71,0.81 0.73,1.53 1.2,2.19 0.83,0.53 2.61,-0.67 -0.01,-3.37 -0.52,-0.54 -0.56,-0.64 -1.22,-1.06 -0.54,-0.34 -0.92,-0.53 -1.54,-0.71 0.55,-4.57 1.07,-9.17 1.64,-13.73 0.51,-4.1 0.89,-5.81 -1.62,-9.25 -1.03,-1.41 -1.49,-1.3 -2,-1.97 0.27,-1.84 1.88,-8.32 1.81,-9.39 -0.07,-1.06 -0.76,-1.97 -1.42,-2.41 -2,-1.32 -4.25,0.09 -4.75,1.9 -0.55,1.97 -0.75,4.48 -1.37,6.31 -1.4,-2.91 -0.5,-7.26 -3.35,-8.43 -1.08,-0.44 -2.34,-0.23 -3.11,0.41 -1.97,1.66 -1.12,3.38 -0.53,5.93 0.45,1.94 1.26,4.65 1.48,6.53 -1.41,1.57 -2.52,2.84 -2.88,5.29 -4.01,-0.58 -6.77,-0.93 -10.83,1.11 -1.05,0.53 -1.83,1.14 -2.65,1.66l-0.04 -5.78c2.19,-0.01 4.38,-0 6.56,-0 7.7,0 7.01,-9.25 2.05,-10.09 2.16,-8.15 -5.87,-7.77 -6.04,-7.83 -0.44,-0.15 -0.92,-4.81 -5.98,-4.85 -2.98,-0.02 -4.88,1.72 -5.76,4.32 -0.13,0.37 -0.04,0.22 -0.23,0.52 -0.85,0.01 -1.53,-0.03 -2.35,0.17 -2.1,0.52 -0.62,1.04 -2.59,0.03 -2.24,-1.15 -4.95,-0.73 -6.69,0.95 -1.13,1.09 -1.25,1.61 -1.85,3.42 -1.93,0.12 -3.85,0.06 -5.43,2.12 -1.51,1.98 -1.49,3.42 -0.75,5.98 -1.51,0.53 -2.51,1.32 -3.24,2.71 -0.77,1.47 -0.77,3.42 0.02,4.89 1.85,3.46 4.87,2.81 9.38,2.9 0.81,1.2 2.21,2.17 2.97,3.4 -4.19,0.53 -7.38,4.32 -7.66,8.29 -0.16,2.22 0.11,2.88 0.74,4.72 -3.57,0.48 -6.53,4.7 -4.42,8.75 0.88,1.68 2.1,2.65 3.99,3.15 0.9,0.24 0.6,0.13 0.6,2.91 0,1.22 -0,2.45 0,3.67 -2.11,0.71 -3.39,1.42 -4.28,3.12 -0.95,1.8 -1.03,3.99 -0.02,5.82 2.23,4.06 6.4,3.22 11.76,3.22l18.67 -0.01c1.22,-0.12 1.41,-1.66 -0.28,-1.69 -7.07,-0.12 -15.22,0.01 -22.38,0.01 -2.57,0 -4.66,0.01 -5.82,-1.63 -1.17,-1.64 -1.38,-3.82 -0.02,-5.53 1.37,-1.73 2.9,-1.7 5.7,-1.7l18.67 0c2.12,0 3,0.32 3.28,-0.69z" />
			<path class="fil0" d="M37.63 55.85c-0.78,1.28 -1.45,2 -2.15,3.71 -0.74,1.81 -0.8,2.7 -1.13,4.67 -0.08,2.89 0.24,5.14 1.41,7.68 0.35,0.76 0.84,1.38 1.11,2.02 -1.28,0.92 -2.69,1.56 -2.91,3.98 -0.41,4.59 3.02,6.19 5.7,8.04l12.32 8.35c2.04,1.39 2.19,1.55 5.27,1.55l34.34 0.12c2.96,0.01 3.25,-0.64 3.25,-3.52 -0,-2.28 0,-4.56 0,-6.84 0,-1.84 0.43,-5.13 -0.82,-5.99 -1.02,-0.69 -4.99,-0.41 -6.56,-0.41 -0.46,-0.13 -0.82,-1.88 -2.21,-3.12 0.31,-0.48 0.56,-0.58 0.92,-1.04 3.8,-4.87 4.62,-11.31 1.71,-16.8 -0.56,-1.06 -1.65,-2.75 -2.5,-3.49 -0.44,-0.38 -0.57,-0.69 -1.07,-1.06 -1.52,-1.13 -2.82,-2.16 -5.08,-2.91 -2.29,-0.76 -4.62,-1.02 -7.15,-0.66 -2.28,0.32 -4.11,1.04 -5.86,2.11 -2.26,1.38 -2.78,2.29 -4.27,3.86l-1.05 -1.09c-5.42,-6.45 -16.92,-6.99 -23.28,0.83z" />
			<path class="fil1" d="M93.09 94.21c0.24,-1.06 0.1,-7.86 0.1,-9.89 0,-4.16 1.07,-3.44 -5.52,-3.44 0.19,2.05 1.14,5.1 -0.57,4.69 -0.8,-0.19 -0.73,-1.5 -0.84,-2.33 -0.36,-2.72 -0.28,-4.73 -3.08,-6.59 -1.6,-1.07 -3.11,-1.05 -5.28,-0.92 -4.86,0.29 -12.02,1.41 -17.24,2.05 -1.78,0.22 -4.03,0.22 -5.22,1.17 -2.94,2.37 -1.38,7.2 3.01,6.72 3.7,-0.4 7.85,-1.17 11.5,-1.4 1.55,-0.1 1.46,1.26 0.67,1.59l-8.62 1.08c-1.66,0.2 -4.31,0.72 -5.87,0.24 -1.58,-0.49 -2.83,-1.64 -3.41,-3.01 -0.55,-1.3 -1.72,-1.75 -3.4,-2.87 -1.28,-0.85 -2.5,-1.71 -3.81,-2.6 -2.87,-1.96 -5.84,-4.81 -8.63,-2.78 -1.39,1.02 -1.62,2.94 -0.72,4.86 0.68,1.45 2.01,2.12 3.37,3.04l11.47 7.77c0.91,0.63 2.86,2.15 3.96,2.45 1.4,0.37 22.14,0.23 25.38,0.23 1.91,-0 11.75,0.16 12.75,-0.04z" />
			<path class="fil2" d="M39.22 73.55c2.46,0.09 4.51,1.87 6.83,3.46l6.24 4.18c0.89,-5.56 6.44,-4.73 10.64,-5.44 -1.08,-1.59 -1.58,-1.7 -2.67,-4.12 -0.77,-1.72 -1.25,-3.59 -1.34,-5.7 -0.09,-2.08 0.3,-4.15 0.95,-5.95 0.18,-0.51 1,-2.12 0.99,-2.3 -0.02,-0.22 -1.19,-1.69 -1.54,-1.88 -1.38,-0.43 -3.65,-2.78 -9.03,-2.4 -4.56,0.32 -8.47,2.99 -10.61,6.48 -1.68,2.73 -2.37,6.1 -1.83,9.37 0.43,2.62 1.03,2.97 1.39,4.29z" />
			<path class="fil3" d="M64.63 74.98c0.34,0.75 0.55,0.55 2.03,0.36l7.59 -0.92c1.72,-0.21 3.35,-0.38 5.1,-0.43 2.38,-0.07 2.84,0.46 4.62,1.09 1.95,-2.28 3.87,-4.92 3.99,-9.42 0.09,-3.3 -1.53,-8.05 -3.8,-9.66 -1.57,-0.88 -1.8,-1.31 -3.96,-2.03 -11.14,-3.7 -21.85,7.81 -16.64,18.93 0.33,0.69 0.96,1.49 1.08,2.09z" />
			<path class="fil3" d="M18.28 21.04c1.83,0.24 15.27,0.07 18.31,0.07 3.24,0 5.79,0.31 6.83,-2.37 0.55,-1.4 -0.02,-2.72 -0.74,-3.5 -1.24,-1.35 -1.85,-0.8 -3.29,-1.4 -0.45,-1.49 1.11,-1.65 0.9,-3.91 -0.43,-4.43 -5.91,-2.99 -6.47,-3.78 -0.25,-0.36 -0.2,-1.38 -0.51,-2.05 -0.36,-0.76 -0.69,-0.94 -1.08,-1.45l-0.23 0.07c-1.26,0.22 -2.72,0.07 -3.95,1.95 -1.64,2.52 0.99,2.83 -3.15,2.93 -1.96,0.05 -3.24,0.97 -3.84,2.34 -1.2,2.76 1.25,3.78 0.57,4.84 -0.48,0.75 -2.43,0.09 -3.6,1.97 -1.38,2.21 -0.11,3.46 0.24,4.3z" />
			<path class="fil4" d="M50.19 28.27l2.47 0.04c0.17,0.25 0.36,0.36 0.39,0.75 0.14,1.6 -3.43,0.7 -4.76,0.92l2.17 0.02 0.81 6.77c0.82,0.01 1.8,-0.14 1.93,0.72 0.16,1.04 -0.95,0.95 -1.75,0.97l0.69 5.87 8.73 0 1.19 -10.1c-1.41,-0.09 -3.36,0.25 -4.43,-0.28 -0.28,-1.26 0.21,-1.44 1.45,-1.43 1.06,0.01 2.14,-0.04 3.2,0.04 0.15,-3.16 1.32,-5.72 -0.22,-8.63 -1.01,-1.9 -2.98,-3.75 -5.87,-4.01 -1.6,0.85 -2.52,0.44 -4.44,2.77 -1.77,2.15 -1.43,3.82 -1.57,5.59z" />
			<path class="fil3" d="M31.3 44.3l16.97 0.01c-0.2,-1.98 -1.73,-16.27 -2.11,-16.83 -0.5,0.16 -2.74,0.04 -3.67,0.18 -3,0.46 -6.09,2.16 -7.91,4.2 -3.04,3.42 -4.05,6.81 -3.28,12.44z" />
			<path class="fil4" d="M31.46 63.85c0.1,-0.29 0.02,-0.27 1.28,-0.26 0.55,0.01 1.09,0.01 1.64,0l-0.03 0.63c0.33,-1.96 0.39,-2.86 1.13,-4.67 0.69,-1.71 1.37,-2.42 2.15,-3.71l-2.98 -0.08 -0.14 0.54c-1.27,0.51 -10.89,0.22 -13.17,0.22 -4.47,0 -9,0.07 -13.47,-0.01l0 6.33 21.73 -0c1.01,-0.01 1.91,-0.16 1.85,1z" />
			<path class="fil4" d="M25.67 33.94c-0.94,0.43 -1.18,0.18 -2.04,-0.77l-4.84 -5.13 -6.54 -0.03c0.2,0.32 0.38,0.52 0.63,0.81l7.41 7.98c0.44,0.45 0.43,0.4 0.44,1.2 0.04,1.96 0.07,4.3 -0.02,6.24 0.98,0.25 5.48,0.09 6.82,0.09 -0.71,-5.23 -0.37,-9.69 3.31,-13.65 0.42,-0.45 0.41,-0.54 0.41,-1.35 -0,-2.18 0.04,-4.41 -0.02,-6.58l-5.43 0.01c0.02,2.2 0.26,9.66 -0.12,11.19z" />
			<path class="fil3" d="M4.72 26.29c0.71,0.15 18.69,0.16 19.42,-0.01l0 -3.48c-2.95,-0.59 -7.31,1.31 -9.75,-2.49 -2.03,-3.16 0.1,-7.02 3.01,-7.64 -0.76,-2.93 -0.73,-2.9 0.45,-5.46 -4.18,0.16 -3.7,4.41 -4.35,4.84 -0.9,0.58 -4.86,-0.88 -6.1,2.89 -0.92,2.79 1.31,3.67 0.73,4.68 -0.51,0.9 -2.23,0.01 -3.64,2.1 -1.19,1.76 -0.48,3.09 0.23,4.57z" />
			<path class="fil0" d="M48.74 57.57l-1.18 0.01c-4.78,-0.01 -6.16,5.67 -2.77,8.27 1.44,1.1 2.23,0.56 4,0.83l0 5.62c-1.43,0.11 -2.56,0.11 -3.46,-0.86 -0.73,-0.78 -0.59,-1.54 -0.89,-2.55 -0.58,-0.27 -0.76,-0.28 -1.38,-0.04 -0.47,1.61 0.33,3.01 1.37,4.05 1.45,1.44 2.36,0.83 4.36,1.17 -0.01,0.77 -0.22,1.95 0.76,2 1.06,0.06 0.93,-1.08 0.92,-1.97 1.56,-0.48 2.22,0.35 3.96,-0.86 0.83,-0.57 1.66,-1.73 1.85,-3.1 0.42,-3.07 -1.74,-5.17 -4.6,-5.18l-1.21 0 0.02 -5.71c1.49,0.02 2.36,-0.14 3.28,0.74 1.13,1.07 0.58,1.75 1.16,2.81l0.91 0.14c1.09,-1.21 0.05,-3.13 -0.53,-3.79 -1.48,-1.66 -2.67,-1.58 -4.84,-1.58 0,-0.82 0.13,-1.66 -0.78,-1.71 -1.05,-0.05 -0.79,0.89 -0.96,1.68z" />
			<path class="fil0" d="M72.36 66.61c-1.17,-0.87 -3.99,-4.26 -5.06,-4.88 -1.4,-0.81 -2.81,-0.08 -3.27,1 -0.71,1.67 0.55,2.67 1.22,3.33 1.7,1.68 3.32,3.28 4.99,4.99 2.48,2.55 3.86,0.48 6.05,-1.76l7.44 -7.53c1.68,-2.04 -0.97,-5.58 -3.82,-2.68l-7.54 7.53z" />
			<path class="fil3" d="M10.11 44.31l8.94 -0 0 -5.74c-0,-0.94 -0.04,-0.85 -0.62,-1.34 -0.7,-0.6 -1.05,-1.31 -1.85,-2 -0.78,-0.68 -0.98,-1.36 -1.98,-2.01 -2.29,0.77 -3.81,2.07 -4.73,4 -0.54,1.13 -0.76,2.27 -0.73,3.65 0.03,2.03 0.42,2.02 0.97,3.45z" />
			<path class="fil1" d="M64.63 74.98c-0.12,-0.59 -0.75,-1.39 -1.08,-2.09 -5.21,-11.12 5.5,-22.63 16.64,-18.93 2.16,0.72 2.39,1.15 3.96,2.03 -1.52,-2.29 -5.99,-4.2 -9.38,-4.34 -10.42,-0.41 -17.08,10.5 -13.03,19.19 0.63,1.34 2.05,3.64 2.88,4.13z" />
			<path class="fil1" d="M39.22 73.55c-0.36,-1.32 -0.96,-1.67 -1.39,-4.29 -0.54,-3.27 0.16,-6.63 1.83,-9.37 2.14,-3.49 6.05,-6.15 10.61,-6.48 5.38,-0.38 7.65,1.97 9.03,2.4 -0.5,-0.82 -2.51,-2.09 -3.74,-2.72 -7.94,-4.07 -18.3,1.21 -19.45,10.53 -0.37,3 0.18,5.59 1.49,8.14 0.33,0.65 0.75,1.7 1.61,1.79z" />
			<path class="fil1" d="M4.72 26.29c-0.71,-1.48 -1.42,-2.81 -0.23,-4.57 1.41,-2.09 3.13,-1.2 3.64,-2.1 0.57,-1 -1.65,-1.89 -0.73,-4.68 1.24,-3.76 5.21,-2.31 6.1,-2.89 0.66,-0.43 0.17,-4.68 4.35,-4.84l0.29 -0.51c-2.61,-1.18 -5.05,-0.46 -6.08,1.78 -0.38,0.83 -0.31,1.77 -0.63,2.5 -2.51,0.66 -4.2,-0.5 -5.71,1.85 -1.96,3.04 0.6,4.63 0.31,5.58 -0.3,1 -3.42,0.19 -4.24,3.33 -0.66,2.54 1.02,4.05 2.93,4.56z" />
			<path class="fil1" d="M18.28 21.04c-0.35,-0.84 -1.62,-2.08 -0.24,-4.3 1.17,-1.88 3.12,-1.22 3.6,-1.97 0.68,-1.06 -1.77,-2.08 -0.57,-4.84 0.59,-1.37 1.88,-2.29 3.84,-2.34 4.13,-0.1 1.51,-0.41 3.15,-2.93 1.23,-1.89 2.68,-1.73 3.95,-1.95l0.23 -0.07c-1.31,-0.89 -3.07,-1.44 -4.83,-0.49 -0.76,0.41 -1.2,0.8 -1.61,1.52 -0.6,1.05 -0.42,1.52 -0.7,2.59 -1.92,0.87 -3.7,-0.68 -5.68,1.72 -0.98,1.19 -1.16,2.9 -0.27,4.29 1.99,3.07 -2.94,0.45 -3.83,4.58 -0.49,2.31 1.21,3.73 2.97,4.18z" />
			<path class="fil1" d="M31.3 44.3c-0.77,-5.63 0.24,-9.02 3.28,-12.44 1.81,-2.04 4.91,-3.74 7.91,-4.2 0.93,-0.14 3.17,-0.02 3.67,-0.18 -2.86,-0.66 -5.06,-0.77 -7.86,0.12 -1.06,0.34 -2.2,0.86 -3.03,1.39 -2.69,1.71 -4.93,4.38 -5.88,7.52 -0.57,1.9 -1.04,5.94 -0.07,7.76l1.97 0.04z" />
			<path class="fil3" d="M50.78 19.38c1.02,-0.39 1.57,-0.8 2.8,-0.99 -0.34,-1.79 -0.84,-3.59 -1.24,-5.39 -0.33,-1.5 -0.45,-4.53 -2.57,-3.87 -1.74,0.55 -0.55,3.37 -0.19,4.92 0.38,1.63 0.97,3.69 1.2,5.33z" />
			<path class="fil3" d="M56.15 18.18c1.2,0.22 1.72,0.33 2.79,0.68 0.42,-1.1 0.86,-3.81 1.12,-5.13 0.3,-1.51 1.34,-4.18 -0.42,-4.64 -2.06,-0.55 -2.1,2.28 -2.42,3.82 -0.35,1.71 -0.81,3.57 -1.08,5.28z" />
			<path class="fil1" d="M65.61 63.18c-0.21,0.71 -0.12,0.75 0.35,1.18 0.37,0.34 0.59,0.57 0.94,0.91 0.81,0.81 5.1,5.27 5.47,5.27 0.35,0 5.99,-5.82 6.66,-6.5 1.09,-1.1 2.27,-2.14 3.3,-3.26 0.65,-0.71 -0.04,-1.66 -1.06,-0.62 -0.6,0.61 -1.1,1.11 -1.7,1.72l-6.56 6.55c-1.08,0.78 -2.29,-1.01 -3.71,-2.42l-2.49 -2.5c-0.44,-0.47 -0.5,-0.55 -1.2,-0.33z" />
			<path class="fil1" d="M10.11 44.31c-0.56,-1.43 -0.94,-1.42 -0.97,-3.45 -0.02,-1.38 0.19,-2.51 0.73,-3.65 0.92,-1.93 2.43,-3.23 4.73,-4 -0.35,-0.94 -7.34,0.62 -7.66,6.92 -0.14,2.73 0.47,2.8 0.98,4.17l2.19 0.01z" />
			<path class="fil2" d="M48.81 64.92l-0 -5.61c-2.03,-0.19 -4.17,0.24 -4.18,2.79 -0.01,2.25 1.82,3.22 4.19,2.82z" />
			<path class="fil2" d="M50.49 72.34c1.41,-0.01 4.17,0.19 4.18,-2.84 0.01,-2.99 -2.69,-2.84 -4.18,-2.88l0 5.72z" />
			<path class="fil1" d="M50.19 28.27c0.13,-1.77 -0.21,-3.44 1.57,-5.59 1.93,-2.33 2.85,-1.93 4.44,-2.77 -4.73,-0.55 -8.86,3.55 -8.13,8.33l2.12 0.03z" />
			<path class="fil1" d="M51.28 36.76l-0.81 -6.77 -2.17 -0.02 0.76 6.63c0.05,0.02 0.11,-0 0.13,0.05l0.37 0.1c0.12,0.02 0.43,0.02 0.57,0.02 0.38,-0 0.77,-0.01 1.15,-0.01z" />
			<polygon class="fil1" points="52.16,44.31 51.46,38.45 49.29,38.44 49.97,44.3 " />
			<path class="fil1" d="M24.13 31.09l-0 -3.07 -2.94 0c0.07,0.14 2.43,2.81 2.95,3.07z" />
		</g>
	</g>
</svg>
