<svg width="60" height="60" viewBox="0 0 60 60" fill="none" xmlns="http://www.w3.org/2000/svg">
<path d="M48.75 60H11.25C5.03625 60 0 54.9637 0 48.75V11.25C0 5.03625 5.03625 0 11.25 0H48.75C54.9637 0 60 5.03625 60 11.25V48.75C60 54.9637 54.9637 60 48.75 60Z" fill="white"/>
<g clip-path="url(#clip0)">
<path d="M30 44.999C38.2843 44.999 45 38.2833 45 29.999C45 21.7148 38.2843 14.999 30 14.999C21.7157 14.999 15 21.7148 15 29.999C15 38.2833 21.7157 44.999 30 44.999Z" fill="#007AB9"/>
<path d="M38.9623 31.2069V37.391H35.3769V31.6213C35.3769 30.1726 34.8592 29.1833 33.5611 29.1833C32.5704 29.1833 31.9819 29.8493 31.722 30.4943C31.6276 30.7248 31.6032 31.0448 31.6032 31.3681V37.3908H28.0176C28.0176 37.3908 28.0657 27.6188 28.0176 26.6072H31.6035V28.1354C31.5963 28.1474 31.5861 28.1592 31.5797 28.1707H31.6035V28.1354C32.08 27.4022 32.9298 26.354 34.8349 26.354C37.1938 26.354 38.9623 27.8952 38.9623 31.2069ZM24.2666 21.4092C23.0401 21.4092 22.2377 22.2143 22.2377 23.2721C22.2377 24.3074 23.0168 25.1358 24.2196 25.1358H24.2428C25.4934 25.1358 26.271 24.3074 26.271 23.2721C26.2472 22.2143 25.4934 21.4092 24.2666 21.4092ZM22.4508 37.391H26.0351V26.6072H22.4508V37.391Z" fill="#F1F2F2"/>
</g>
<defs>
<clipPath id="clip0">
<rect width="30" height="30" fill="white" transform="translate(15 15)"/>
</clipPath>
</defs>
</svg>
