<svg width="40" height="40" viewBox="0 0 40 40" fill="none" xmlns="http://www.w3.org/2000/svg">
<path d="M25.7144 14.2849V21.4278C25.7144 22.5644 26.1659 23.6545 26.9696 24.4582C27.7734 25.2619 28.8634 25.7135 30.0001 25.7135C31.1367 25.7135 32.2268 25.2619 33.0305 24.4582C33.8343 23.6545 34.2858 22.5644 34.2858 21.4278V19.9992C34.2856 16.7749 33.1947 13.6456 31.1905 11.1199C29.1863 8.5943 26.3866 6.82093 23.2467 6.08818C20.1068 5.35543 16.8114 5.70639 13.8963 7.08399C10.9812 8.4616 8.61779 10.7848 7.19045 13.6759C5.76311 16.567 5.35575 19.8559 6.03461 23.0079C6.71347 26.1599 8.43862 28.9895 10.9296 31.0367C13.4205 33.0839 16.5307 34.2282 19.7545 34.2837C22.9782 34.3391 26.126 33.3024 28.6858 31.342M25.7144 19.9992C25.7144 23.1551 23.156 25.7135 20.0001 25.7135C16.8442 25.7135 14.2858 23.1551 14.2858 19.9992C14.2858 16.8433 16.8442 14.2849 20.0001 14.2849C23.156 14.2849 25.7144 16.8433 25.7144 19.9992Z" stroke="#1D3B70" stroke-width="2" stroke-linecap="round" stroke-linejoin="round"/>
</svg>
