<svg width="41" height="40" viewBox="0 0 41 40" fill="none" xmlns="http://www.w3.org/2000/svg">
<path d="M32.9655 17.1428C32.9655 27.1428 20.1351 35.7142 20.1351 35.7142C20.1351 35.7142 7.30469 27.1428 7.30469 17.1428C7.30469 13.7329 8.65646 10.4626 11.0626 8.05141C13.4688 5.64023 16.7323 4.28564 20.1351 4.28564C23.5379 4.28564 26.8014 5.64023 29.2076 8.05141C31.6137 10.4626 32.9655 13.7329 32.9655 17.1428Z" stroke="#1D3B70" stroke-width="2" stroke-linecap="round" stroke-linejoin="round"/>
<path d="M20.1351 21.4285C22.4971 21.4285 24.4119 19.5097 24.4119 17.1428C24.4119 14.7759 22.4971 12.8571 20.1351 12.8571C17.7731 12.8571 15.8583 14.7759 15.8583 17.1428C15.8583 19.5097 17.7731 21.4285 20.1351 21.4285Z" stroke="#1D3B70" stroke-width="2" stroke-linecap="round" stroke-linejoin="round"/>
</svg>
