<svg width="60" height="60" viewBox="0 0 60 60" fill="none" xmlns="http://www.w3.org/2000/svg">
<path d="M48.75 60H11.25C5.03625 60 0 54.9637 0 48.75V11.25C0 5.03625 5.03625 0 11.25 0H48.75C54.9637 0 60 5.03625 60 11.25V48.75C60 54.9637 54.9637 60 48.75 60Z" fill="white"/>
<path d="M30 45C38.2856 45 45 38.2856 45 30C45 21.7144 38.2856 15 30 15C21.7144 15 15 21.7144 15 30C15 38.2856 21.7144 45 30 45ZM21.8625 29.6756L36.3244 24.0994C36.9956 23.8575 37.5825 24.2625 37.365 25.2788L37.3669 25.2769L34.905 36.8775C34.7231 37.6987 34.2337 37.8994 33.5494 37.5131L29.7994 34.7494L27.99 36.4912C27.7894 36.6919 27.6206 36.8606 27.2344 36.8606L27.5006 33.0431L34.4513 26.7638C34.7531 26.4975 34.3837 26.3475 33.9862 26.6119L25.3969 32.0194L21.6956 30.8644C20.8894 30.6113 20.8725 30.0619 21.8625 29.6756Z" fill="#039BE5"/>
</svg>
