<svg width="60" height="60" viewBox="0 0 60 60" fill="none" xmlns="http://www.w3.org/2000/svg">
<path d="M48.75 60H11.25C5.03625 60 0 54.9637 0 48.75V11.25C0 5.03625 5.03625 0 11.25 0H48.75C54.9637 0 60 5.03625 60 11.25V48.75C60 54.9637 54.9637 60 48.75 60Z" fill="white"/>
<path d="M41.9175 23.8912C43.1381 23.025 44.1637 21.9431 45 20.6981V20.6963C43.8844 21.1856 42.6956 21.51 41.4563 21.6675C42.7313 20.9062 43.7044 19.71 44.1619 18.2681C42.9731 18.9769 41.6606 19.4775 40.2619 19.7569C39.1331 18.5569 37.5244 17.8125 35.7694 17.8125C32.3644 17.8125 29.6231 20.5763 29.6231 23.9644C29.6231 24.4519 29.6644 24.9206 29.7656 25.3669C24.6525 25.1175 20.1281 22.6669 17.0888 18.9337C16.5581 19.8544 16.2469 20.9081 16.2469 22.0425C16.2469 24.1725 17.3437 26.0606 18.9787 27.1538C17.9906 27.135 17.0213 26.8481 16.2 26.3962V26.4638C16.2 29.4525 18.3319 31.935 21.1275 32.5069C20.6269 32.6438 20.0813 32.7094 19.515 32.7094C19.1213 32.7094 18.7237 32.6869 18.3506 32.6044C19.1475 35.04 21.4088 36.8306 24.0975 36.8888C22.005 38.5256 19.3481 39.5119 16.4719 39.5119C15.9675 39.5119 15.4837 39.4894 15 39.4275C17.7244 41.1844 20.9531 42.1875 24.435 42.1875C35.2875 42.1875 42.3619 33.1331 41.9175 23.8912Z" fill="#03A9F4"/>
</svg>
