<svg width="28" height="28" viewBox="0 0 28 28" fill="none" xmlns="http://www.w3.org/2000/svg">
<path fill-rule="evenodd" clip-rule="evenodd" d="M3.48807 5.68458C3.85711 5.07354 5.89043 2.85102 7.34143 2.91811C7.77518 2.95406 8.1586 3.21645 8.47013 3.52077C9.18544 4.21928 11.2331 6.86114 11.3494 7.41707C11.6321 8.78054 10.0074 9.56651 10.5046 10.9408C11.7723 14.0427 13.9566 16.2269 17.0599 17.4933C18.433 17.9905 19.219 16.3659 20.5826 16.6498C21.1373 16.766 23.7805 18.8136 24.4791 19.5289C24.7822 19.8392 25.0458 20.2238 25.0818 20.6576C25.1357 22.1852 22.7753 24.2471 22.3152 24.5107C21.2296 25.2871 19.8133 25.2739 18.0868 24.4712C13.2689 22.4667 5.56932 14.9125 3.52761 9.91277C2.74639 8.19585 2.69247 6.77009 3.48807 5.68458Z" stroke="#222222" stroke-width="2" stroke-linecap="round" stroke-linejoin="round"/>
</svg>
