<svg width="70" height="70" viewBox="0 0 70 70" fill="none" xmlns="http://www.w3.org/2000/svg">
<path d="M59.232 33.9509C59.0409 29.6193 57.6911 25.4184 55.3233 21.7862C52.9555 18.154 49.6565 15.2237 45.7704 13.3009C43.9857 12.4256 42.1069 11.7572 40.1704 11.3086C36.7435 10.5905 33.205 10.5905 29.7781 11.3086C27.8416 11.7572 25.9628 12.4256 24.1781 13.3009C20.1459 15.3105 16.7539 18.4045 14.3829 22.2354C12.0119 26.0662 10.7559 30.4822 10.7559 34.9875C10.7559 39.4927 12.0119 43.9087 14.3829 47.7395C16.7539 51.5704 20.1459 54.6644 24.1781 56.674C25.9578 57.561 27.8381 58.2299 29.7781 58.6663C33.2014 59.4179 36.7471 59.4179 40.1704 58.6663C42.1104 58.2299 43.9907 57.561 45.7704 56.674C49.5914 54.7889 52.8478 51.9297 55.2113 48.3846C57.5747 44.8394 58.9615 40.7338 59.232 36.4817C59.232 35.9971 59.232 35.5125 59.232 35.0009C59.232 34.4894 59.2589 34.3009 59.232 33.9509ZM29.832 13.9471C30.6542 14.149 31.4634 14.4008 32.255 14.7009C29.0149 16.7985 26.3227 19.6397 24.4027 22.9881C22.4827 26.3364 21.3903 30.095 21.2166 33.9509H13.3819C13.6178 29.2939 15.3439 24.8359 18.3057 21.2342C21.2675 17.6326 25.3082 15.078 29.832 13.9471ZM29.832 56.0278C25.3729 54.9233 21.3787 52.4339 18.4231 48.9172C15.4675 45.4004 13.7026 41.0374 13.3819 36.4548H21.2435C21.464 40.2416 22.5765 43.9227 24.4901 47.1978C26.4038 50.473 29.0644 53.2495 32.255 55.3009C31.4669 55.6041 30.6568 55.8471 29.832 56.0278ZM33.682 53.174C30.8408 51.3556 28.4665 48.8953 26.7502 45.9912C25.034 43.0872 24.0239 39.8207 23.8012 36.4548H33.682V53.174ZM33.682 33.9509H23.7743C23.9331 30.5081 24.9158 27.1538 26.6399 24.1695C28.3639 21.1853 30.7789 18.6583 33.682 16.8009V33.9509ZM36.3743 16.8009C39.2932 18.653 41.7274 21.1756 43.4741 24.1587C45.2209 27.1418 46.2297 30.4991 46.4166 33.9509H36.3743V16.8009ZM36.3743 36.4817H46.255C46.0282 39.8429 45.0162 43.1041 43.3001 46.0031C41.5841 48.9022 39.2119 51.3582 36.3743 53.174V36.4817ZM40.2243 56.0278C39.401 55.8298 38.5915 55.5779 37.8012 55.274C40.9779 53.21 43.6265 50.4299 45.5342 47.1569C47.4419 43.8839 48.5556 40.2092 48.7858 36.4278H56.6473C56.3627 41.0207 54.6146 45.4016 51.6592 48.9288C48.7038 52.4559 44.6964 54.9438 40.2243 56.0278ZM48.8127 33.9509C48.6574 30.094 47.5757 26.3311 45.6591 22.9805C43.7424 19.6298 41.0471 16.7899 37.8012 14.7009C38.5957 14.4091 39.4044 14.1575 40.2243 13.9471C44.7522 15.0702 48.7976 17.6226 51.7607 21.2259C54.7238 24.8291 56.4468 29.2913 56.6743 33.9509H48.8127Z" fill="#1D3B70"/>
<path d="M56.6743 33.951H48.8128C48.6575 30.094 47.5758 26.3312 45.6591 22.9805C43.7425 19.6299 41.0472 16.79 37.8013 14.701C38.5958 14.4092 39.4045 14.1576 40.2243 13.9471C44.7523 15.0703 48.7977 17.6227 51.7608 21.2259C54.7239 24.8292 56.4469 29.2914 56.6743 33.951Z" fill="#1D3B70" fill-opacity="0.5"/>
<path d="M56.6743 36.4011C56.3782 41.0096 54.6225 45.4025 51.6637 48.9382C48.705 52.474 44.698 54.9675 40.2278 56.0547C39.4033 55.8555 38.5928 55.6023 37.8013 55.2967C40.9826 53.2214 43.6349 50.426 45.5453 47.135C47.4557 43.844 48.571 40.1491 48.8016 36.3469L56.6743 36.4011Z" fill="#1D3B70" fill-opacity="0.5"/>
<path d="M46.4163 36.4547C46.1858 39.8159 45.1572 43.0771 43.4131 45.9761C41.669 48.8752 39.2581 51.3313 36.374 53.147V36.4547H46.4163Z" fill="#1D3B70" fill-opacity="0.5"/>
<path d="M46.4163 33.9509H36.374V16.8009C39.2929 18.653 41.7271 21.1756 43.4739 24.1587C45.2207 27.1418 46.2295 30.4991 46.4163 33.9509Z" fill="#1D3B70" fill-opacity="0.5"/>
<path d="M33.6816 16.8009V33.9509H23.7739C23.9328 30.5081 24.9155 27.1537 26.6395 24.1695C28.3635 21.1853 30.7785 18.6583 33.6816 16.8009Z" fill="#1D3B70" fill-opacity="0.5"/>
<path d="M33.682 36.4547V53.147C30.8444 51.3313 28.4722 48.8752 26.7562 45.9761C25.0401 43.0771 24.0281 39.8159 23.8013 36.4547H33.682Z" fill="#1D3B70" fill-opacity="0.5"/>
<path d="M32.2549 55.3009C31.4675 55.6132 30.6575 55.8652 29.8318 56.0547C25.3687 54.9487 21.3714 52.4553 18.4154 48.9332C15.4594 45.4112 13.697 41.0421 13.3818 36.4547H21.2434C21.4639 40.2415 22.5764 43.9226 24.49 47.1978C26.4036 50.4729 29.0643 53.2494 32.2549 55.3009Z" fill="#1D3B70" fill-opacity="0.5"/>
<path d="M32.2549 14.701C29.0148 16.7985 26.3226 19.6398 24.4026 22.9881C22.4825 26.3365 21.3902 30.0951 21.2165 33.951H13.3818C13.6177 29.2939 15.3438 24.8359 18.3056 21.2343C21.2674 17.6327 25.308 15.0781 29.8318 13.9471C30.6541 14.1491 31.4632 14.4008 32.2549 14.701Z" fill="#1D3B70" fill-opacity="0.5"/>
</svg>
