<svg width="70" height="70" viewBox="0 0 70 70" fill="none" xmlns="http://www.w3.org/2000/svg">
<path d="M60.0704 29.8104L57.8897 28.0604L55.1974 25.9066L46.9589 19.3643L43.5935 16.672L37.105 11.5297C36.5175 11.0342 35.7736 10.7625 35.0051 10.7625C34.2365 10.7625 33.4926 11.0342 32.9051 11.5297L26.3897 16.672L23.0512 19.3643L14.8127 25.9066L12.1204 28.0335L9.91281 29.7835C9.70451 29.9616 9.55547 30.199 9.48573 30.4641C9.41598 30.7291 9.42879 31.0091 9.52245 31.2667C9.61611 31.5242 9.78623 31.7471 10.0099 31.9054C10.2336 32.0637 10.5002 32.15 10.7743 32.1527C11.0799 32.1629 11.378 32.0571 11.6089 31.8566L12.1204 31.4527V52.5873C12.124 53.4665 12.3011 54.3362 12.6416 55.1467C12.9821 55.9572 13.4793 56.6925 14.1047 57.3103C14.73 57.9282 15.4712 58.4165 16.2858 58.7472C17.1003 59.0779 17.9721 59.2444 18.8512 59.2373H51.1589C52.0367 59.2445 52.9073 59.0777 53.7203 58.7467C54.5334 58.4157 55.2728 57.927 55.8961 57.3087C56.5193 56.6905 57.0139 55.955 57.3515 55.1447C57.6891 54.3343 57.8628 53.4652 57.8628 52.5873V31.4797L58.3474 31.8835C58.6274 32.1082 58.9843 32.2144 59.3416 32.1791C59.6989 32.1439 60.0282 31.9701 60.2589 31.695C60.4821 31.4194 60.5875 31.0669 60.5522 30.714C60.5169 30.3611 60.3438 30.0364 60.0704 29.8104ZM43.082 43.595C43.082 44.6661 42.6565 45.6933 41.8992 46.4507C41.1418 47.208 40.1146 47.6335 39.0435 47.6335H30.9666C29.8955 47.6335 28.8684 47.208 28.111 46.4507C27.3537 45.6933 26.9281 44.6661 26.9281 43.595V35.5181C26.9352 34.4492 27.363 33.4261 28.1188 32.6703C28.8747 31.9144 29.8977 31.4867 30.9666 31.4797H39.0435C40.1146 31.4797 41.1418 31.9051 41.8992 32.6625C42.6565 33.4198 43.082 34.447 43.082 35.5181V43.595Z" fill="#1D3B70" fill-opacity="0.7"/>
<path d="M39.0432 34.1989H30.9663C30.2228 34.1989 29.6201 34.8015 29.6201 35.545V43.6219C29.6201 44.3654 30.2228 44.9681 30.9663 44.9681H39.0432C39.7867 44.9681 40.3893 44.3654 40.3893 43.6219V35.545C40.3893 34.8015 39.7867 34.1989 39.0432 34.1989Z" fill="#1D3B70"/>
</svg>
