<svg width="70" height="70" viewBox="0 0 70 70" fill="none" xmlns="http://www.w3.org/2000/svg">
<path d="M42.0498 24.7423C42.0605 26.1568 41.6504 27.5425 40.8718 28.7235C40.0931 29.9044 38.981 30.8272 37.6768 31.3747C36.3725 31.9222 34.9349 32.0696 33.5466 31.7982C32.1584 31.5268 30.8821 30.8489 29.88 29.8506C28.8779 28.8523 28.1952 27.5786 27.9185 26.1914C27.6419 24.8042 27.7839 23.3661 28.3264 22.0597C28.8689 20.7534 29.7875 19.6378 30.9655 18.8547C32.1434 18.0715 33.5276 17.6563 34.9421 17.6615C36.8225 17.6615 38.6263 18.4067 39.9585 19.7338C41.2907 21.061 42.0427 22.8619 42.0498 24.7423Z" fill="#1D3B70"/>
<path d="M63.1847 51.5307C63.2211 51.611 63.24 51.6982 63.24 51.7865C63.24 51.8747 63.2211 51.9619 63.1847 52.0422C63.0245 52.2175 62.8025 52.3237 62.5655 52.3384H52.3347C52.5763 51.675 52.6322 50.9582 52.4962 50.2653C51.9752 47.5743 50.8217 45.0457 49.1309 42.8884C50.1041 42.6187 51.1094 42.4828 52.1193 42.4845C54.726 42.4775 57.2543 43.3757 59.2724 45.0255C61.2905 46.6754 62.6734 48.9746 63.1847 51.5307Z" fill="#1D3B70" fill-opacity="0.5"/>
<path d="M17.5226 52.3385H7.45338C7.20826 52.3252 6.97733 52.2193 6.80722 52.0423C6.74525 51.8775 6.74525 51.6957 6.80722 51.5308C7.31946 48.9702 8.70623 46.6674 10.7299 45.017C12.7536 43.3667 15.2882 42.4714 17.8995 42.4846C18.9074 42.4871 19.9111 42.6137 20.888 42.8616C19.1993 45.0336 18.038 47.5681 17.4957 50.2654C17.3163 50.9461 17.3256 51.6627 17.5226 52.3385Z" fill="#1D3B70" fill-opacity="0.5"/>
<path d="M49.8573 50.7769C49.8908 50.9567 49.884 51.1417 49.8374 51.3186C49.7909 51.4955 49.7057 51.6599 49.5881 51.8C49.4492 51.9655 49.2763 52.0993 49.0812 52.1922C48.8862 52.2851 48.6734 52.335 48.4573 52.3384H21.4804C21.2643 52.335 21.0515 52.2851 20.8565 52.1922C20.6614 52.0993 20.4885 51.9655 20.3496 51.8C20.2273 51.6622 20.1372 51.4989 20.0859 51.3219C20.0347 51.1449 20.0236 50.9587 20.0535 50.7769C20.5586 48.2479 21.7086 45.8923 23.3919 43.9384C23.9888 43.2347 24.6564 42.5941 25.3842 42.0269C28.0987 39.814 31.4936 38.6056 34.9958 38.6056C38.4979 38.6056 41.8928 39.814 44.6073 42.0269C45.3352 42.5941 46.0028 43.2347 46.5996 43.9384C48.2559 45.8996 49.378 48.2551 49.8573 50.7769Z" fill="#1D3B70"/>
<path d="M52.119 37.3153C55.301 37.3153 57.8805 34.7478 57.8805 31.5807C57.8805 28.4135 55.301 25.8461 52.119 25.8461C48.9369 25.8461 46.3574 28.4135 46.3574 31.5807C46.3574 34.7478 48.9369 37.3153 52.119 37.3153Z" fill="#1D3B70" fill-opacity="0.5"/>
<path d="M23.4996 31.5807C23.5049 32.7225 23.1708 33.8402 22.5398 34.7918C21.9088 35.7434 21.0092 36.486 19.9554 36.9254C18.9015 37.3648 17.7408 37.4812 16.6207 37.2597C15.5005 37.0383 14.4715 36.489 13.6641 35.6816C12.8567 34.8742 12.3074 33.8452 12.086 32.725C11.8645 31.6049 11.9809 30.4442 12.4203 29.3904C12.8597 28.3365 13.6023 27.4369 14.5539 26.8059C15.5055 26.1749 16.6232 25.8408 17.765 25.8461C19.2859 25.8461 20.7445 26.4503 21.82 27.5258C22.8954 28.6012 23.4996 30.0598 23.4996 31.5807Z" fill="#1D3B70" fill-opacity="0.5"/>
</svg>
